<svg width="14" height="12" viewBox="0 0 14 12" fill="none" xmlns="http://www.w3.org/2000/svg">
<path d="M7.875 7.71875H8.375V7.21875H7.875V7.71875ZM7.875 3.78125V4.28125H8.375V3.78125H7.875ZM8.99609 0.691406L9.34965 0.337853L9.34395 0.332152L9.33806 0.326638L8.99609 0.691406ZM13.5898 5.28516L13.9615 4.95067L13.9527 4.9409L13.9434 4.9316L13.5898 5.28516ZM13.2363 5.86129L8.64254 10.455L9.34965 11.1621L13.9434 6.5684L13.2363 5.86129ZM8.64254 10.455C8.59091 10.5067 8.5275 10.5155 8.46863 10.4918C8.43897 10.4799 8.41619 10.4611 8.4014 10.4401C8.38818 10.4213 8.375 10.3921 8.375 10.3438H7.375C7.375 11.4075 8.63638 11.8754 9.34965 11.1621L8.64254 10.455ZM8.375 10.3438V7.71875H7.375V10.3438H8.375ZM7.875 7.21875H4.15625V8.21875H7.875V7.21875ZM4.15625 7.21875C4.08714 7.21875 4.05352 7.19602 4.03812 7.18063C4.02273 7.16523 4 7.13161 4 7.0625H3C3 7.72145 3.4973 8.21875 4.15625 8.21875V7.21875ZM4 7.0625V4.4375H3V7.0625H4ZM4 4.4375C4 4.38901 4.01824 4.35017 4.04321 4.32447C4.06613 4.30087 4.10119 4.28125 4.15625 4.28125V3.28125C3.48373 3.28125 3 3.81965 3 4.4375H4ZM4.15625 4.28125H7.875V3.28125H4.15625V4.28125ZM8.375 3.78125V1.15625H7.375V3.78125H8.375ZM8.375 1.15625C8.375 1.03246 8.52665 0.936669 8.65412 1.05617L9.33806 0.326638C8.59054 -0.374169 7.375 0.131598 7.375 1.15625H8.375ZM8.64254 1.04496L13.2363 5.63871L13.9434 4.9316L9.34965 0.337853L8.64254 1.04496ZM13.2182 5.61964C13.3028 5.71362 13.2775 5.82008 13.2363 5.86129L13.9434 6.5684C14.3944 6.11742 14.3691 5.40357 13.9615 4.95067L13.2182 5.61964ZM4.75 10.6719C4.75 10.6178 4.77493 10.5718 4.80415 10.5442C4.82929 10.5205 4.86802 10.5 4.92188 10.5V11.5C5.33477 11.5 5.75 11.166 5.75 10.6719H4.75ZM4.92188 10.5H2.625V11.5H4.92188V10.5ZM2.625 10.5C1.45192 10.5 0.5 9.54808 0.5 8.375H-0.5C-0.5 10.1004 0.899639 11.5 2.625 11.5V10.5ZM0.5 8.375V3.125H-0.5V8.375H0.5ZM0.5 3.125C0.5 1.95192 1.45192 1 2.625 1V0C0.899639 0 -0.5 1.39964 -0.5 3.125H0.5ZM2.625 1H4.92188V0H2.625V1ZM4.92188 1C4.84129 1 4.80256 0.964742 4.79391 0.956092C4.78526 0.947443 4.75 0.90871 4.75 0.828125H5.75C5.75 0.583478 5.63271 0.380682 5.50101 0.248986C5.36932 0.117289 5.16652 0 4.92188 0V1ZM4.75 0.828125V1.92188H5.75V0.828125H4.75ZM4.75 1.92188C4.75 1.86777 4.77493 1.82181 4.80415 1.79421C4.82929 1.77047 4.86802 1.75 4.92188 1.75V2.75C5.33477 2.75 5.75 2.41597 5.75 1.92188H4.75ZM4.92188 1.75H2.625V2.75H4.92188V1.75ZM2.625 1.75C1.84659 1.75 1.25 2.39421 1.25 3.125H2.25C2.25 2.92611 2.41904 2.75 2.625 2.75V1.75ZM1.25 3.125V8.375H2.25V3.125H1.25ZM1.25 8.375C1.25 9.14333 1.85667 9.75 2.625 9.75V8.75C2.40895 8.75 2.25 8.59105 2.25 8.375H1.25ZM2.625 9.75H4.92188V8.75H2.625V9.75ZM4.92188 9.75C4.84129 9.75 4.80256 9.71474 4.79391 9.70609C4.78526 9.69744 4.75 9.65871 4.75 9.57812H5.75C5.75 9.33348 5.63271 9.13068 5.50101 8.99899C5.36932 8.86729 5.16652 8.75 4.92188 8.75V9.75ZM4.75 9.57812V10.6719H5.75V9.57812H4.75Z" fill="#14ACA4"/>
</svg>
